<svg width="36" height="30" viewBox="0 0 36 30" fill="none" xmlns="http://www.w3.org/2000/svg">
  <path d="M6.4566 14.8522C6.63868 15.0798 6.83336 15.2997 7.04249 15.5109L7.93815 16.4202L19.8601 28.5191L31.7822 16.4202L32.6773 15.5109C35.9359 12.2055 35.9359 6.84469 32.6773 3.53846L32.5554 3.41366C29.2975 0.106907 24.0147 0.106907 20.7561 3.41366L19.8601 4.32324L18.9653 3.41366C15.7071 0.106907 10.4239 0.106907 7.16545 3.41366L7.04249 3.53846C5.41382 5.19157 4.59961 7.3578 4.59961 9.52508" stroke="#7C8AC6" stroke-width="1.5" stroke-miterlimit="2" stroke-linecap="round" stroke-linejoin="round" />
  <path d="M25.6215 11.7463H16.6285L14.8419 15.1079L12.5156 7.39648L10.46 12.1417H1.49219" stroke="#7C8AC6" stroke-width="1.5" stroke-miterlimit="2" stroke-linecap="round" />
</svg>