<svg width="37" height="33" viewBox="0 0 37 33" fill="none" xmlns="http://www.w3.org/2000/svg">
  <path d="M12.0765 1.60938C12.0765 6.21951 13.5263 9.25471 15.8731 10.5585C18.3137 11.9144 20.212 11.3748 20.212 14.3578M20.212 14.3578C20.236 13.507 20.212 12.0576 20.212 11.101C20.212 10.5211 20.2687 9.9787 20.3751 9.47372M20.212 14.3578C20.212 19.7798 19.2929 24.3451 15.0479 23.0289C10.8028 21.7127 7.90449 21.2784 5.0162 23.6734C2.12791 26.0684 1.77148 31.4245 1.77148 31.4245H3.89594C3.89594 30.6544 4.02147 29.8855 4.27147 29.1485C4.72167 27.8223 5.55482 26.6593 6.66604 25.8068C7.77726 24.9542 9.11624 24.4504 10.5135 24.3588C10.6183 24.3519 10.8567 24.3224 10.8281 24.3451C10.7068 25.1571 12.1257 26.5471 12.89 27.1007C15.4403 28.9484 17.8752 29.5414 21.2968 29.5414C29.0848 29.5414 35.3983 20.5162 35.3983 12.728C35.3983 1.60938 22.011 1.71336 20.3751 9.47372M15.0479 1.60938C15.0479 8.38898 18.64 9.47372 20.3751 9.47372" stroke="#7C8AC6" stroke-width="1.5" stroke-linecap="round" />
  <path d="M22.541 17.901C25.1368 20.476 27.3786 14.5905 31.6262 17.9011" stroke="#7C8AC6" stroke-width="1.5" stroke-linecap="round" />
</svg>