<svg width="35" height="36" viewBox="0 0 35 36" fill="none" xmlns="http://www.w3.org/2000/svg">
  <path d="M1.26953 2.82371C1.26953 1.85353 1.91672 1.15873 2.79592 0.905608C3.68152 0.650642 4.67323 0.886641 5.26621 1.69469C7.43719 4.65309 9.49024 6.92068 11.49 8.46738C13.4936 10.0171 15.4817 10.8717 17.5054 10.9306C21.5588 11.0485 25.314 7.9809 29.2797 2.39996C29.8709 1.56791 30.8916 1.3121 31.8129 1.56548C32.7276 1.81703 33.3964 2.52325 33.3964 3.50762C33.3964 8.16325 33.0619 13.6516 32.7258 18.3441C32.6299 19.6821 32.5335 20.9603 32.4447 22.137C32.2244 25.0554 32.0513 27.3498 32.0513 28.3839C32.0513 29.8072 31.4055 31.0992 30.4258 32.1994C29.4447 33.3011 28.1671 34.1641 27.021 34.705C26.8654 34.7784 26.6938 34.77 26.5262 34.677C26.3517 34.5801 26.2047 34.4002 26.149 34.1772C25.8041 32.794 25.1131 30.7956 23.7583 29.1295C22.3827 27.4379 20.3243 26.0966 17.333 26.0966C14.3417 26.0966 12.2832 27.4379 10.9076 29.1295C9.55281 30.7956 8.86187 32.794 8.51687 34.1772C8.46124 34.4002 8.31426 34.5801 8.1397 34.677C7.97215 34.77 7.80052 34.7784 7.64496 34.705C6.49879 34.1641 5.22121 33.3011 4.24014 32.1994C3.26039 31.0992 2.61461 29.8072 2.61461 28.3839C2.61461 27.32 2.43972 24.9196 2.21778 21.8734C2.13 20.6686 2.03486 19.3627 1.94027 17.9986C1.60407 13.1501 1.26953 7.50777 1.26953 2.82371Z" stroke="#7C8AC6" stroke-width="1.5" />
  <path d="M30.1111 14.4511C30.1111 12.6027 27.1728 11.9201 25.9478 13.4269C19.9324 20.8252 15.1591 20.738 8.6217 12.9522C7.39197 11.4877 4.55469 12.1803 4.55469 13.9969" stroke="#7C8AC6" stroke-width="1.5" stroke-linecap="round" />
</svg>