<svg width="35" height="31" viewBox="0 0 35 31" fill="none" xmlns="http://www.w3.org/2000/svg">
  <path d="M15.7031 10.4989C16.6341 9.39101 18.3899 9.39101 19.3209 10.4989C19.8993 11.1872 20.8452 11.4828 21.7338 11.253C23.1639 10.8831 24.5844 11.8759 24.6606 13.2986C24.708 14.1825 25.2926 14.9565 26.1518 15.273C27.5348 15.7823 28.0774 17.3887 27.2698 18.5828C26.768 19.3247 26.768 20.2814 27.2698 21.0233C28.0774 22.2173 27.5348 23.8237 26.1518 24.3331C25.2926 24.6496 24.708 25.4235 24.6606 26.3075C24.5844 27.7301 23.1639 28.7229 21.7338 28.353C20.8452 28.1232 19.8993 28.4189 19.3209 29.1072C18.3899 30.215 16.6341 30.215 15.7031 29.1072C15.1247 28.4189 14.1788 28.1232 13.2903 28.353C11.8601 28.7229 10.4396 27.7301 10.3634 26.3075C10.316 25.4235 9.73145 24.6496 8.87217 24.3331C7.48917 23.8237 6.94658 22.2173 7.7542 21.0233C8.256 20.2814 8.256 19.3247 7.7542 18.5828C6.94658 17.3887 7.48917 15.7823 8.87217 15.273C9.73145 14.9565 10.316 14.1825 10.3634 13.2986C10.4396 11.8759 11.8601 10.8831 13.2903 11.253C14.1788 11.4828 15.1247 11.1872 15.7031 10.4989Z" stroke="#7C8AC6" stroke-width="1.5" stroke-linecap="round" stroke-linejoin="round" />
  <path d="M11.1797 22.3379C11.8097 22.5525 12.2383 23.0773 12.273 23.6767C12.3289 24.6414 13.3704 25.3146 14.4189 25.0638C15.0703 24.9079 15.7638 25.1084 16.1879 25.5751C16.8704 26.3263 18.1578 26.3263 18.8403 25.5751C19.2644 25.1084 19.9579 24.9079 20.6093 25.0638C21.6578 25.3146 22.6993 24.6414 22.7552 23.6767C22.7899 23.0773 23.2185 22.5525 23.8485 22.3379" stroke="#7C8AC6" stroke-width="1.5" stroke-linecap="round" stroke-linejoin="round" />
  <path d="M14.0156 17.7988C14.1986 18.2102 14.1215 18.6917 13.8188 19.0271C13.3318 19.5669 13.4648 20.4165 14.0929 20.7776C14.4831 21.002 14.7036 21.4358 14.6552 21.8843C14.5774 22.6061 15.1846 23.2134 15.9064 23.1356C16.3549 23.0872 16.7887 23.3076 17.0131 23.6979" stroke="#7C8AC6" stroke-width="1.5" stroke-linecap="round" stroke-linejoin="round" />
  <path d="M23.8457 16C23.2787 15.7854 22.893 15.2606 22.8617 14.6612C22.8114 13.6965 21.8741 13.0233 20.9304 13.2741C20.3441 13.43 19.72 13.2295 19.3383 12.7628C18.724 12.0116 17.5654 12.0116 16.9511 12.7628C16.5695 13.2295 15.9453 13.43 15.359 13.2741C14.4154 13.0233 13.478 13.6965 13.4277 14.6612C13.3965 15.2606 13.0108 15.7854 12.4438 16" stroke="#7C8AC6" stroke-width="1.5" stroke-linecap="round" stroke-linejoin="round" />
  <path d="M11.1797 18.5332C11.1797 19.1852 11.1797 20.415 11.1797 21.067" stroke="#7C8AC6" stroke-width="1.5" stroke-linecap="round" stroke-linejoin="round" />
  <path d="M11.1797 18.5332C11.1797 19.1852 11.1797 20.415 11.1797 21.067" stroke="#7C8AC6" stroke-width="1.5" stroke-linecap="round" stroke-linejoin="round" />
  <path d="M23.8457 21.0684C25.5349 20.4163 25.5349 19.1866 23.8457 18.5346" stroke="#7C8AC6" stroke-width="1.5" stroke-linecap="round" stroke-linejoin="round" />
  <path d="M17.3945 15.5664C16.8195 15.1462 16.0057 15.3643 15.7178 16.0157" stroke="#7C8AC6" stroke-width="1.5" stroke-linecap="round" stroke-linejoin="round" />
  <path d="M20.9668 17.5332C21.0432 16.8251 20.4474 16.2294 19.7393 16.3057" stroke="#7C8AC6" stroke-width="1.5" stroke-linecap="round" stroke-linejoin="round" />
  <path d="M20.3301 22.3262C21.0261 22.1754 21.4037 21.4223 21.108 20.7744" stroke="#7C8AC6" stroke-width="1.5" stroke-linecap="round" stroke-linejoin="round" />
  <path d="M2.63523 10.6431C3.14946 9.71062 4.28838 9.39111 5.17907 9.9295C6.06976 10.4679 6.37493 11.6603 5.86069 12.5928L4.51824 15.0272C4.004 15.9597 2.86508 16.2792 1.97439 15.7408C1.0837 15.2025 0.778531 14.01 1.29277 13.0775L2.63523 10.6431Z" stroke="#7C8AC6" stroke-width="1.5" stroke-linecap="round" stroke-linejoin="round" />
  <path d="M29.0131 4.05478C30.1321 4.69757 30.5155 6.12122 29.8695 7.23458C29.2234 8.34794 27.7925 8.72941 26.6735 8.08661L23.7522 6.40854C22.6332 5.76574 22.2498 4.34209 22.8959 3.22873C23.5419 2.11537 24.9728 1.73391 26.0918 2.37671L29.0131 4.05478Z" stroke="#7C8AC6" stroke-width="1.5" stroke-linecap="round" stroke-linejoin="round" />
  <path d="M16.1798 2.74972C16.5962 4.3643 14.9778 6.21773 12.5649 6.88948C10.1521 7.56123 7.85862 6.79692 7.44225 5.18234C7.02588 3.56777 8.64432 1.71433 11.0571 1.04259C13.4699 0.370837 15.7635 1.13515 16.1798 2.74972Z" stroke="#7C8AC6" stroke-width="1.5" stroke-linecap="round" stroke-linejoin="round" />
  <path d="M4.12011 25.1424C4.8498 24.4128 6.3598 24.7397 7.4928 25.8727C8.6258 27.0057 8.95276 28.5157 8.22307 29.2454C7.49339 29.9751 5.98338 29.6481 4.85038 28.5151C3.71738 27.3821 3.39043 25.8721 4.12011 25.1424Z" stroke="#7C8AC6" stroke-width="1.5" stroke-linecap="round" stroke-linejoin="round" />
  <path d="M30.4397 22.9157C32.3868 23.0607 33.7828 21.3595 33.5577 19.1159C33.3326 16.8724 31.5716 14.9361 29.6245 14.7911" stroke="#7C8AC6" stroke-width="1.5" stroke-linecap="round" stroke-linejoin="round" />
  <path d="M13.7128 4.14483C13.6592 3.94493 13.53 3.76862 13.3366 3.63153C13.1431 3.49444 12.8914 3.40079 12.6037 3.35888C12.316 3.31697 12.0013 3.3281 11.6873 3.39128C11.3733 3.45445 11.0699 3.56773 10.8037 3.72107C10.5376 3.87441 10.3171 4.06308 10.1617 4.27037C10.0062 4.47766 9.92075 4.69717 9.91273 4.90946C9.90471 5.12175 9.97443 5.32026 10.1157 5.48742C10.257 5.65457 10.4655 5.7852 10.7227 5.86775" stroke="#7C8AC6" stroke-width="1.5" stroke-linecap="round" stroke-linejoin="round" />
</svg>