<svg width="36" height="36" viewBox="0 0 36 36" fill="none" xmlns="http://www.w3.org/2000/svg">
  <path d="M20.6404 27.4254C20.6404 29.1223 19.2033 30.4979 17.4305 30.4979C15.6578 30.4979 14.2207 29.1223 14.2207 27.4254C14.2207 25.7285 16.2383 14.357 26.3264 0.90625C19.601 15.7021 20.6404 25.7285 20.6404 27.4254Z" stroke="#7C8AC6" stroke-width="1.5" stroke-linejoin="round" />
  <path d="M4.80664 21.084C10.7501 21.084 10.6145 24.6844 10.3291 26.0599C10.0436 27.4355 10.1901 28.8614 10.7501 30.1571C11.31 31.4529 12.2582 32.5604 13.4748 33.3396C14.6914 34.1188 16.1217 34.5347 17.5848 34.5347C19.048 34.5347 20.4783 34.1188 21.6949 33.3396C22.9115 32.5604 23.8597 31.4529 24.4196 30.1571C24.9796 28.8614 25.1261 27.4355 24.8406 26.0599C24.5552 24.6844 24.9828 21.084 30.3631 21.084" stroke="#7C8AC6" stroke-width="1.5" stroke-linejoin="round" />
  <path d="M0.771484 21.084H4.80671M34.3983 21.084H30.3631M25.6554 26.4643H34.3983M9.51447 26.4643H0.771484" stroke="#7C8AC6" stroke-width="1.5" stroke-linecap="round" stroke-linejoin="round" />
</svg>