<svg width="37" height="30" viewBox="0 0 37 30" fill="none" xmlns="http://www.w3.org/2000/svg">
  <path d="M14.8242 15.0026H14.8269H14.8242ZM10.4947 4.15862C7.02248 4.15862 1.3519 12.6215 1.3519 19.2998C1.3519 25.0725 2.55056 27.9965 4.91554 27.9965C8.69143 27.9965 13.9776 21.5626 14.2088 14.981C14.3888 9.82375 14.5098 6.41068 13.1526 5.01051C12.591 4.43001 11.7497 4.15862 10.4947 4.15862ZM4.91554 29.2274C1.73626 29.2274 0.121094 25.8868 0.121094 19.2998C0.121094 12.2614 6.03618 2.92773 10.4947 2.92773C12.083 2.92773 13.2413 3.33084 14.0368 4.1532C15.7568 5.93231 15.6358 9.3535 15.4396 15.0241C15.1816 22.3394 9.29343 29.2274 4.91554 29.2274Z" fill="#7C8AC6" />
  <path d="M22.4646 14.981C22.6957 21.5626 27.982 27.9965 31.7552 27.9965C34.1202 27.9965 35.3188 25.0725 35.3188 19.2998C35.3188 12.6215 29.6509 4.15862 26.176 4.15862C24.9236 4.15862 24.0798 4.43001 23.5181 5.01051C22.1663 6.41068 22.2845 9.82375 22.4646 14.981ZM31.7552 29.2274C27.38 29.2274 21.4917 22.3394 21.2337 15.0241C21.0375 9.3535 20.9166 5.92962 22.6339 4.1532C23.4294 3.33084 24.5903 2.92773 26.176 2.92773C30.6372 2.92773 36.5496 12.2614 36.5496 19.2998C36.5496 25.8868 34.9399 29.2274 31.7552 29.2274Z" fill="#7C8AC6" />
  <path d="M32.1737 18.8035H31.905C30.5639 18.8062 28.4139 18.8088 26.2693 17.8843V17.8789C27.7259 17.2339 31.1283 15.3662 31.4535 11.902C31.4911 11.4505 31.1605 11.0528 30.709 11.0098C30.2575 10.9668 29.8598 11.3 29.8195 11.7515C29.6394 13.6784 28.0323 15.0114 26.7397 15.7854C27.1777 13.8827 27.3766 10.8297 25.4926 7.70955C25.2561 7.31987 24.7536 7.19623 24.3639 7.43004C23.9769 7.66385 23.8533 8.16913 24.0871 8.55882C26.5301 12.6008 24.845 16.511 24.6353 16.9625C24.2322 16.6776 23.8372 16.3525 23.4555 15.9763C20.6848 13.2135 19.2443 8.37872 19.1583 1.60361L19.1663 0.953225C19.1663 0.50173 18.7981 0.130859 18.3467 0.130859L18.3359 0.133566L18.3279 0.130859C17.8737 0.130859 17.5055 0.50173 17.5055 0.953225L17.5162 1.59557C17.4302 8.37337 15.987 13.2135 13.2136 15.9763C12.8346 16.3525 12.4396 16.6776 12.0365 16.9625C11.8484 16.554 10.1499 12.5847 12.5821 8.55882C12.8186 8.16913 12.6949 7.66385 12.3079 7.43004C11.9182 7.19623 11.4157 7.31987 11.1792 7.70955C9.29258 10.8324 9.49417 13.8881 9.93223 15.7908C8.63955 15.0222 7.03506 13.6892 6.85231 11.7515C6.812 11.3 6.40888 10.9668 5.96007 11.0098C5.50857 11.0528 5.17532 11.4505 5.21832 11.902C5.54082 15.3662 8.94858 17.2339 10.4025 17.8789V17.8816C8.26058 18.8061 6.10794 18.7981 4.7642 18.8035H4.49815C4.04665 18.8035 3.67578 19.1663 3.67578 19.6204C3.67578 20.0746 4.04665 20.4428 4.49815 20.4428H5.06782C6.24762 20.4428 7.99183 20.3971 9.85694 19.8247C9.20925 21.5608 7.97032 23.6302 5.65103 24.1542C5.20491 24.2537 4.93082 24.6917 5.03026 25.1351C5.11626 25.5168 5.45487 25.7721 5.82843 25.7721L6.01116 25.7533C9.78437 24.9014 11.2759 21.1738 11.8296 19.013C12.7003 18.5535 13.5656 17.9435 14.3719 17.1346C16.2397 15.2802 17.5592 12.6357 18.3359 9.24143C19.1126 12.6357 20.4348 15.2802 22.2972 17.1346C23.1062 17.9435 23.9715 18.5535 24.8423 19.013C25.3959 21.1738 26.8874 24.9014 30.6607 25.7533L30.8408 25.7721C31.2143 25.7721 31.5556 25.5168 31.6416 25.1351C31.741 24.6917 31.4642 24.2537 31.0208 24.1542C28.7096 23.6329 27.4679 21.5635 26.8229 19.8274C28.6853 20.3971 30.4269 20.4428 31.604 20.4428H32.1737C32.6252 20.4428 32.9934 20.0746 32.9934 19.6204C32.9934 19.1663 32.6252 18.8035 32.1737 18.8035Z" fill="#7C8AC6" />
</svg>