<svg width="36" height="35" viewBox="0 0 36 35" fill="none" xmlns="http://www.w3.org/2000/svg">
  <path d="M2.81135 7.54378L4.57956 10.5488L4.67816 10.5338C4.72828 10.5271 4.77905 10.5215 4.82983 10.5172C4.91663 10.5099 5.00475 10.5061 5.09352 10.5061C5.92718 10.5061 6.68157 10.8376 7.22795 11.3735L10.4199 9.56518L13.6119 7.75681C13.5258 7.48134 13.4793 7.18868 13.4793 6.88549C13.4793 6.37024 13.6132 5.88568 13.8491 5.46364L10.6396 2.31434M1.06836 8.53122L2.8238 11.515C2.35734 12.0364 2.07465 12.72 2.07465 13.4684C2.07465 15.0714 3.37248 16.3772 4.99328 16.4291L6.28964 20.1902L7.58599 23.9512C7.08055 24.4809 6.77067 25.1929 6.77067 25.9759C6.77067 26.39 6.85747 26.7843 7.01373 27.1422L3.7518 30.343M5.17476 31.7395L8.3787 28.5956C8.79963 28.8143 9.27984 28.9382 9.78954 28.9382C11.1041 28.9382 12.394 28.1139 12.8084 26.9633H17.169H21.7012C22.1156 28.1139 23.2339 28.9382 24.5485 28.9382C24.6294 28.9382 24.7093 28.9351 24.7886 28.929L27.36 33.2994M29.103 32.312L26.6347 28.117C27.2093 27.5776 27.5673 26.8178 27.5673 25.9759C27.5673 25.0974 27.1779 24.3083 26.5587 23.7658L27.6764 20.0732L28.909 16.2661C30.3107 16.01 31.2571 14.918 31.2571 13.4684C31.2571 13.1249 31.1974 12.7952 31.088 12.4885L34.6952 10.4449M33.6889 8.7346L29.8043 10.9354C29.3477 10.6629 28.8118 10.5061 28.2382 10.5061C27.4664 10.5061 26.7622 10.7903 26.2286 11.2579L22.8476 9.34251L19.517 7.54378C19.5501 7.3682 19.517 7.07048 19.517 6.88549C19.517 6.47326 19.4312 6.08063 19.2762 5.724L22.7072 2.35734M21.2839 0.96088L17.9136 4.26824C17.4913 4.04798 17.0095 3.92319 16.4981 3.92319C16.092 3.92319 15.7048 4.00186 15.351 4.14457L12.0625 0.917969M18.4599 9.13711C17.9322 9.58021 17.247 9.8478 16.4981 9.8478C15.8787 9.8478 15.3028 9.66474 14.8236 9.3507L8.09634 13.1619L8.09994 13.1976L8.10715 13.2941L8.10911 13.3312C8.11108 13.3767 8.11239 13.4224 8.11239 13.4684C8.11239 14.4343 7.64135 15.2921 6.91218 15.8329L9.3958 23.0386C9.52454 23.0221 9.65622 23.0136 9.78954 23.0136C10.3104 23.0136 10.8004 23.143 11.2279 23.3709L25.2321 13.1927C25.236 13.1503 25.2409 13.1081 25.2468 13.0662L25.2586 12.9888L18.4599 9.13711ZM21.7012 24.9885C22.1156 23.8379 23.2339 23.0136 24.5485 23.0136C24.5946 23.0136 24.6405 23.0146 24.686 23.0167L26.7894 16.0679C26.4045 15.8609 26.0703 15.5738 25.8106 15.2298L12.5807 24.8454C12.6007 24.8924 12.6194 24.9402 12.6368 24.9885H21.7012Z" stroke="#7C8AC6" stroke-width="1.5" stroke-linecap="round" stroke-linejoin="round" />
</svg>