<svg width="39" height="31" viewBox="0 0 39 31" fill="none" xmlns="http://www.w3.org/2000/svg">
  <path d="M37.9159 1.67578C37.9159 6.43749 35.9282 12.2496 35.9282 14.3503C35.9282 20.6526 38.4937 22.9634 37.419 25.9745C36.5466 28.4183 35.2894 29.6858 31.74 29.6858C28.1907 29.6858 25.4222 27.7251 22.9377 27.7251C18.8914 27.7251 17.8976 29.6858 13.4965 29.6858C7.53357 29.6858 8.81135 28.1453 7.67556 28.1453C6.53978 28.1453 5.54596 28.9856 4.05524 28.9856C1.78366 28.9856 0.00899273 27.375 1.78367 25.4143V24.8541C3.2744 25.0875 9.45023 24.2379 12.5736 22.6133C16.4779 20.5826 15.768 19.6722 19.5303 17.5715C23.2926 15.4707 24.9253 13.6501 24.9253 9.93874C24.9253 6.96968 24.1208 3.19299 23.7185 1.67578" stroke="#7C8AC6" stroke-width="1.5" stroke-linecap="round" stroke-linejoin="round" />
  <path d="M27.3222 2.90287C27.9663 5.76608 28.4672 14.1512 26.2487 18.9914M24.649 22.0591C20.227 26.0003 14.3439 25.195 11.7676 25.2632M30.2563 1.67578C30.6141 10.6744 30.471 16.6054 29.6122 18.9914C28.7535 21.3774 30.5856 21.5777 32.0168 21.5777C33.4481 21.5777 34.2067 21.5819 33.491 18.9914C32.7754 16.4009 32.9757 6.78866 33.906 1.67578" stroke="#7C8AC6" stroke-width="1.5" stroke-linecap="round" stroke-linejoin="round" />
  <ellipse cx="32.0187" cy="25.2613" rx="2.94843" ry="1.47421" stroke="#7C8AC6" stroke-width="1.5" stroke-linecap="round" stroke-linejoin="round" />
</svg>