<svg width="34" height="42" viewBox="0 0 34 42" fill="none" xmlns="http://www.w3.org/2000/svg">
  <path d="M7.94246 37.8683C10.6479 39.9502 18.7501 39.9326 21.3675 37.8155V32.7886C21.3675 32.0735 21.8994 31.2422 23.3965 31.2422L23.6044 31.2492L24.02 31.2562C26.7114 31.2562 28.2226 30.6785 28.3354 30.1113C28.6911 28.2232 28.2754 24.3271 28.2719 24.2848C28.2297 23.9255 28.4445 23.5803 28.7827 23.4464C28.8003 23.4393 30.3785 22.8265 31.6749 22.0726L32.0448 21.6921L31.9391 21.2483C28.6031 16.0382 28.3671 14.4882 28.3565 14.231C27.0813 3.38817 18.3097 2.53566 15.6501 2.53566L14.9984 2.54974L14.7061 2.55329C12.5326 2.55329 1.7108 3.12402 1.65444 14.3896V14.46C1.65444 21.6428 3.65539 24.0911 5.26174 26.0533C5.91696 26.8564 6.53338 27.6137 6.97019 28.5754C8.59768 32.1686 8.31235 36.1351 7.94246 37.8683ZM14.6215 41.0212C11.3242 41.0212 8.01995 40.2603 6.49814 38.7455L6.29034 37.9811C6.32909 37.812 7.34363 33.3029 5.50126 29.2377C5.15603 28.4733 4.62409 27.8251 4.01114 27.0748C2.24275 24.9118 0.0410156 22.217 0.0410156 14.4705L0.0445633 14.393C0.107972 1.32032 13.2089 0.939864 14.7061 0.939864L14.9561 0.936424L15.6501 0.925781C18.6479 0.925781 28.5256 1.87343 29.9664 14.0972C29.9734 14.1606 30.2024 15.545 33.2847 20.357C33.3235 20.4064 33.8167 21.1425 33.6229 22.0302C33.5349 22.4389 33.2636 23.0167 32.4816 23.4711C31.5692 23.9995 30.5512 24.4574 29.9347 24.7181C30.0404 25.951 30.2341 28.7587 29.9206 30.4073C29.5331 32.4434 26.4965 32.8661 24.02 32.8661C23.6995 32.8661 23.5057 32.859 23.5057 32.859L23.3965 32.8556L22.9773 32.9048V38.1783L22.7448 38.7455C21.223 40.2603 17.9258 41.0212 14.6215 41.0212Z" fill="#7C8AC6" />
  <path d="M22.1635 13.8581C21.688 13.8581 21.237 13.6784 20.8848 13.3754L20.9094 12.9598L20.7967 12.0686C20.6875 11.6353 20.2471 11.3746 19.8174 11.4838C19.3876 11.5965 19.1234 12.0368 19.2361 12.4701L19.2961 12.9598C19.2961 14.0483 18.4118 14.9361 17.3233 14.9361L17.1295 14.9113L17.1436 14.5732C17.1436 14.1681 17.0767 13.77 16.9428 13.3861C16.7948 12.9669 16.3369 12.7484 15.9142 12.8928C15.495 13.0408 15.2731 13.5023 15.4211 13.9215L15.5303 14.5732C15.5303 15.6617 14.646 16.5459 13.5575 16.5459L12.8213 16.4014C13.0327 15.8907 13.163 15.3481 13.1912 14.7739C13.2194 14.3301 12.8776 13.9496 12.4338 13.925C11.9969 13.9003 11.6095 14.2385 11.5848 14.6859C11.4826 16.5318 9.94675 17.9796 8.09381 17.9796C6.1669 17.9796 4.59584 16.412 4.59584 14.4851C4.59584 13.4459 5.05729 12.4913 5.82171 11.8325C6.18807 12.3327 6.66716 12.7449 7.2484 13.0056L7.57951 13.0796L8.31581 12.6005C8.49899 12.1954 8.31926 11.7198 7.91063 11.5367C7.20609 11.2161 6.74818 10.508 6.74818 9.73296C6.74818 8.64797 7.63235 7.76381 8.71734 7.76381C9.28097 7.76381 9.7918 7.99988 10.1652 8.40851C10.2427 9.03907 10.4646 9.63791 10.8345 10.1663L11.4932 10.508L11.9583 10.3636C12.3246 10.1099 12.4092 9.60268 12.1555 9.23984C11.8843 8.85234 11.7398 8.39087 11.7398 7.91883C11.7398 6.64361 12.7755 5.61147 14.0472 5.61147C15.03 5.61147 15.9001 6.2561 16.2171 7.172C16.0128 7.62643 15.8931 8.12666 15.8931 8.66211C15.8931 9.10597 16.2524 9.46528 16.6963 9.46528C17.1402 9.46528 17.5064 9.10597 17.5064 8.66211C17.5064 7.5736 18.3907 6.68586 19.4757 6.68586C20.4691 6.68586 21.2864 7.42918 21.4202 8.39088C21.0292 8.4719 20.6452 8.60924 20.2999 8.82412C19.923 9.0531 19.7998 9.5533 20.0323 9.93023C20.2647 10.3107 20.7615 10.434 21.1419 10.198C21.4413 10.0148 21.7865 9.91967 22.1388 9.91615L22.2163 9.92324L22.2304 9.9197C23.2837 9.95492 24.1362 10.8215 24.1362 11.8888C24.1362 12.9738 23.252 13.8581 22.1635 13.8581ZM23.0512 8.4155C22.9244 6.55199 21.3709 5.07244 19.4757 5.07244C18.6725 5.07244 17.9292 5.34375 17.3304 5.79466C16.6223 4.70967 15.3928 3.99805 14.0472 3.99805C12.3633 3.99805 10.9296 5.06195 10.3766 6.55557C9.87633 6.29137 9.30915 6.15039 8.71734 6.15039C6.74463 6.15039 5.13476 7.76025 5.13476 9.73296L5.18056 10.2931C3.81375 11.2371 2.98242 12.7942 2.98242 14.4851C2.98242 17.3032 5.27566 19.593 8.09381 19.593C9.65084 19.593 11.0529 18.892 11.99 17.7859C12.4796 18.0219 13.008 18.1592 13.5575 18.1592C14.8398 18.1592 15.96 17.4865 16.6012 16.472L17.3233 16.5459C18.5632 16.5459 19.6624 15.9119 20.3035 14.9537C20.8601 15.2919 21.4977 15.4714 22.1635 15.4714C24.1398 15.4714 25.7495 13.8616 25.7495 11.8888C25.7495 10.2156 24.5976 8.81356 23.0512 8.4155Z" fill="#7C8AC6" />
</svg>