<svg width="36" height="32" viewBox="0 0 36 32" fill="none" xmlns="http://www.w3.org/2000/svg">
  <path d="M9.55821 16.0477C9.55821 10.2815 14.1982 5.60709 19.922 5.60709C25.6457 5.60709 30.2858 10.2815 30.2858 16.0477C30.2858 21.8139 25.6457 26.4883 19.922 26.4883C16.2838 26.4883 13.0834 24.5997 11.2343 21.7426M16.0728 15.7871C16.5964 16.8423 17.0901 17.6629 19.0898 16.6559C21.0895 15.6489 22.2862 13.9771 21.7626 12.9219C21.239 11.8667 19.1934 11.8276 17.1937 12.8346C15.194 13.8415 15.5492 14.7319 16.0728 15.7871ZM16.0728 15.7871C15.5492 14.7319 15.1013 13.8884 14.4347 14.224C13.7681 14.5597 13.6522 15.6872 14.1758 16.7425C14.6994 17.7977 15.6642 18.381 16.3308 18.0453C16.9974 17.7097 16.5964 16.8423 16.0728 15.7871ZM12.5528 18.2501C5.72763 18.8272 6.35117 25.4585 0.898438 28.2043M19.9218 1.33594C19.6008 1.33594 19.2822 1.34638 18.9662 1.36695C18.7066 1.38385 18.5097 1.60958 18.5265 1.87114C18.5433 2.13269 18.7674 2.33102 19.027 2.31412C19.3227 2.29486 19.6211 2.28508 19.9218 2.28508C20.2225 2.28508 20.5209 2.29486 20.8166 2.31412C21.0762 2.33102 21.3003 2.13269 21.3171 1.87114C21.3339 1.60958 21.137 1.38385 20.8774 1.36695C20.5614 1.34638 20.2428 1.33594 19.9218 1.33594ZM15.5288 3.01195C15.7752 2.92772 15.9071 2.65823 15.8235 2.41004C15.7399 2.16184 15.4724 2.02893 15.226 2.11316C14.6188 2.32078 14.0295 2.56753 13.4612 2.85041C13.2279 2.96651 13.1322 3.25112 13.2475 3.48611C13.3627 3.72109 13.6452 3.81746 13.8785 3.70136C14.41 3.4368 14.961 3.20607 15.5288 3.01195ZM24.6176 2.11316C24.3712 2.02893 24.1037 2.16184 24.0201 2.41004C23.9365 2.65823 24.0684 2.92772 24.3148 3.01195C24.8825 3.20607 25.4336 3.4368 25.9651 3.70136C26.1983 3.81746 26.4809 3.72109 26.5961 3.4861C26.7113 3.25112 26.6157 2.96651 26.3824 2.85041C25.8141 2.56753 25.2248 2.32078 24.6176 2.11316ZM10.9143 5.7001C11.1099 5.52721 11.1292 5.22736 10.9576 5.03037C10.786 4.83339 10.4884 4.81385 10.2928 4.98674C9.81384 5.41024 9.36262 5.86482 8.94223 6.34735C8.77061 6.54434 8.79 6.84418 8.98554 7.01708C9.18108 7.18997 9.47872 7.17043 9.65034 6.97344C10.0438 6.52186 10.4661 6.09644 10.9143 5.7001ZM29.5508 4.98674C29.3552 4.81385 29.0576 4.83339 28.886 5.03037C28.7143 5.22736 28.7337 5.52721 28.9293 5.7001C29.3775 6.09644 29.7998 6.52186 30.1932 6.97344C30.3649 7.17043 30.6625 7.18997 30.858 7.01708C31.0536 6.84418 31.073 6.54434 30.9014 6.34735C30.481 5.86482 30.0297 5.41024 29.5508 4.98674ZM33.022 9.53916C32.9067 9.30418 32.6242 9.2078 32.3909 9.3239C32.1577 9.44 32.062 9.72461 32.1773 9.9596C32.4399 10.4951 32.6689 11.0502 32.8616 11.6221C32.9452 11.8703 33.2127 12.0033 33.4591 11.919C33.7055 11.8348 33.8374 11.5653 33.7538 11.3171C33.5477 10.7053 33.3028 10.1117 33.022 9.53916ZM7.6663 9.9596C7.78155 9.72461 7.68589 9.44001 7.45263 9.3239C7.21938 9.2078 6.93687 9.30418 6.82162 9.53916C6.54081 10.1117 6.29588 10.7053 6.08979 11.3171C6.00618 11.5653 6.13812 11.8348 6.38448 11.919C6.63085 12.0033 6.89836 11.8703 6.98197 11.6221C7.17466 11.0502 7.40369 10.4951 7.6663 9.9596ZM34.4945 15.085C34.4777 14.8235 34.2537 14.6252 33.994 14.6421C33.7344 14.659 33.5375 14.8847 33.5543 15.1462C33.5734 15.4442 33.5831 15.7448 33.5831 16.0477C33.5831 16.3506 33.5734 16.6512 33.5543 16.9491C33.5375 17.2107 33.7344 17.4364 33.994 17.4533C34.2537 17.4702 34.4777 17.2719 34.4945 17.0103C34.5149 16.692 34.5253 16.3711 34.5253 16.0477C34.5253 15.7243 34.5149 15.4033 34.4945 15.085ZM33.7538 20.7783C33.8374 20.5301 33.7055 20.2606 33.4591 20.1764C33.2127 20.0921 32.9452 20.225 32.8616 20.4732C32.6689 21.0452 32.4399 21.6003 32.1773 22.1358C32.062 22.3708 32.1577 22.6554 32.3909 22.7715C32.6242 22.8876 32.9067 22.7912 33.022 22.5562C33.3028 21.9837 33.5477 21.39 33.7538 20.7783ZM30.9014 25.748C31.073 25.551 31.0536 25.2512 30.858 25.0783C30.6625 24.9054 30.3649 24.9249 30.1932 25.1219C29.7998 25.5735 29.3775 25.9989 28.9293 26.3953C28.7337 26.5682 28.7143 26.868 28.886 27.065C29.0576 27.262 29.3552 27.2815 29.5508 27.1086C30.0297 26.6851 30.481 26.2306 30.9014 25.748ZM13.8785 28.394C13.6452 28.2779 13.3627 28.3743 13.2475 28.6093C13.1322 28.8443 13.2279 29.1289 13.4612 29.245C14.0295 29.5278 14.6188 29.7746 15.226 29.9822C15.4724 30.0665 15.7399 29.9335 15.8235 29.6853C15.9071 29.4371 15.7752 29.1677 15.5288 29.0834C14.961 28.8893 14.41 28.6586 13.8785 28.394ZM26.3824 29.245C26.6157 29.1289 26.7113 28.8442 26.5961 28.6093C26.4809 28.3743 26.1983 28.2779 25.9651 28.394C25.4336 28.6586 24.8825 28.8893 24.3148 29.0834C24.0684 29.1677 23.9365 29.4371 24.0201 29.6853C24.1037 29.9335 24.3712 30.0665 24.6176 29.9822C25.2248 29.7746 25.8141 29.5278 26.3824 29.245ZM19.027 29.7813C18.7674 29.7644 18.5433 29.9627 18.5265 30.2242C18.5097 30.4858 18.7066 30.7115 18.9662 30.7284C19.2822 30.749 19.6008 30.7594 19.9218 30.7594C20.2428 30.7594 20.5614 30.749 20.8774 30.7284C21.137 30.7115 21.3339 30.4858 21.3171 30.2242C21.3003 29.9627 21.0762 29.7644 20.8166 29.7813C20.5209 29.8005 20.2225 29.8103 19.9218 29.8103C19.6211 29.8103 19.3227 29.8005 19.027 29.7813Z" stroke="#7C8AC6" stroke-width="1.5" stroke-linecap="round" stroke-linejoin="round" />
</svg>