<svg width="41" height="30" viewBox="0 0 41 30" fill="none" xmlns="http://www.w3.org/2000/svg">
  <path fill-rule="evenodd" clip-rule="evenodd" d="M33.4288 15.1297C33.4288 22.5319 27.5071 28.5308 20.2008 28.5308C12.8975 28.5308 6.97266 22.5319 6.97266 15.1297C6.97266 7.72751 12.8975 1.72852 20.2008 1.72852C27.5071 1.72852 33.4288 7.72751 33.4288 15.1297Z" stroke="#7C8AC6" stroke-width="1.5" stroke-miterlimit="2" stroke-linejoin="round" />
  <path fill-rule="evenodd" clip-rule="evenodd" d="M19.3232 6.73778C18.2137 6.85832 17.1814 7.19524 16.2542 7.70211C17.1319 8.21207 17.7655 9.12379 17.883 10.221C18.0746 12.0383 16.7734 13.6671 14.9808 13.8618C13.896 13.9792 12.8854 13.5435 12.2085 12.7801C11.9149 13.8031 11.8036 14.8972 11.921 16.0222C12.4094 20.6551 16.5107 24.0116 21.0849 23.5202C25.6591 23.0257 28.9723 18.8687 28.484 14.2358C27.9987 9.59975 23.8974 6.24327 19.3232 6.73778Z" stroke="#7C8AC6" stroke-width="1.5" stroke-miterlimit="2" stroke-linejoin="round" />
  <path fill-rule="evenodd" clip-rule="evenodd" d="M20.202 6.31055C12.0674 6.31055 4.93095 9.83389 0.894531 15.1282C4.93095 20.4225 12.0674 23.9428 20.202 23.9428C28.3398 23.9428 35.473 20.4225 39.5095 15.1282C35.473 9.83389 28.3398 6.31055 20.202 6.31055Z" stroke="#7C8AC6" stroke-width="1.5" stroke-miterlimit="2" stroke-linejoin="round" />
</svg>