<svg width="37" height="34" viewBox="0 0 37 34" fill="none" xmlns="http://www.w3.org/2000/svg">
  <path d="M11.0254 10.3691C17.1869 10.3691 16.3467 25.8128 16.3467 33.1486" stroke="#7C8AC6" stroke-width="1.5" stroke-linecap="round" />
  <path d="M25.7637 10.3691C19.6022 10.3691 20.4424 25.8128 20.4424 33.1486" stroke="#7C8AC6" stroke-width="1.5" stroke-linecap="round" />
  <path d="M10.632 4.89583C11.391 2.11734 9.75514 0.38684 6.46706 1.18241C3.17897 1.97812 1.64453 5.81249 1.64453 10.2004C1.64453 14.5884 2.61597 16.3699 5.37103 18.6879C7.52155 20.4973 11.2896 18.4225 10.632 15.5051C10.3109 14.0809 9.7286 13.3231 9.21654 12.6568C9.16132 12.585 9.10737 12.5143 9.05428 12.444C9.60743 11.9741 9.97435 11.1449 9.97435 10.2004C9.97435 9.11938 9.49355 8.18938 8.80339 7.77624C9.02645 7.38862 9.29061 7.0664 9.55178 6.74742C9.98676 6.21605 10.414 5.69412 10.632 4.89583Z" stroke="#7C8AC6" stroke-width="1.5" stroke-linejoin="round" />
  <path d="M26.2841 4.89583C25.525 2.11734 27.1609 0.38684 30.449 1.18241C33.737 1.97812 35.2715 5.81249 35.2715 10.2004C35.2715 14.5884 34.3 16.3699 31.545 18.6879C29.3945 20.4973 25.6264 18.4225 26.2841 15.5051C26.6052 14.0809 27.1874 13.3231 27.6995 12.6568C27.7547 12.585 27.8086 12.5143 27.8617 12.444C27.3086 11.9741 26.9417 11.1449 26.9417 10.2004C26.9417 9.11938 27.4225 8.18938 28.1126 7.77624C27.8896 7.38862 27.6254 7.0664 27.3642 6.74742C26.9293 6.21605 26.502 5.69412 26.2841 4.89583Z" stroke="#7C8AC6" stroke-width="1.5" stroke-linejoin="round" />
</svg>