<svg width="17" height="17" viewBox="0 0 17 17" fill="none" xmlns="http://www.w3.org/2000/svg">
  <g clip-path="url(#clip0_5406_65859)">
    <path d="M16.3912 11.3648C16.2597 11.0355 15.8863 10.8751 15.557 11.0065C15.2277 11.138 15.0673 11.5114 15.1987 11.8407C15.3659 12.2594 15.3111 12.7374 15.0521 13.1196C14.7931 13.5019 14.3783 13.7212 13.9142 13.7212H2.80914C2.30287 13.7212 1.8533 13.457 1.60648 13.0145C1.35927 12.5712 1.37089 12.0488 1.63755 11.617L7.19009 2.62712C7.44291 2.21777 7.88086 1.97339 8.36167 1.97339C8.84247 1.97339 9.28039 2.21777 9.53325 2.62712L13.6398 9.27596C13.8261 9.57761 14.2217 9.67118 14.5233 9.48477C14.8249 9.29849 14.9185 8.90292 14.7321 8.60126L10.6255 1.95243C10.1371 1.16159 9.29079 0.689453 8.36163 0.689453C7.43248 0.689453 6.58617 1.16162 6.09773 1.95243L0.545197 10.9424C0.0304298 11.7759 0.00802349 12.7843 0.485201 13.6399C0.961994 14.4947 1.83074 15.0051 2.80914 15.0051H13.9142C14.811 15.0051 15.6132 14.5803 16.115 13.8397C16.6131 13.1047 16.7163 12.1794 16.3912 11.3648Z" fill="white" />
    <path d="M8.36281 12.4675C8.71737 12.4675 9.00477 12.1801 9.00477 11.8255C9.00477 11.471 8.71737 11.1836 8.36281 11.1836H8.36249C8.00794 11.1836 7.7207 11.471 7.7207 11.8255C7.7207 12.1801 8.00826 12.4675 8.36281 12.4675Z" fill="white" />
    <path d="M9.00266 9.58104V4.86265C9.00266 4.5081 8.71526 4.2207 8.3607 4.2207C8.00615 4.2207 7.71875 4.5081 7.71875 4.86265V9.58104C7.71875 9.9356 8.00615 10.223 8.3607 10.223C8.71526 10.223 9.00266 9.9356 9.00266 9.58104Z" fill="white" />
  </g>
  <defs>
    <clipPath id="clip0_5406_65859">
      <rect width="16.4356" height="16.4356" fill="white" transform="translate(0.142578 0.00390625)" />
    </clipPath>
  </defs>
</svg>